# https://github.com/mikedh/trimesh
v 0.00000000 0.00000000 0.00000000
v 0.00000000 0.00000000 100.00000000
v -0.00000000 -2.00000000 0.00000000
v -0.00000000 -2.00000000 100.00000000
v 0.00000000 2.00000000 0.00000000
v 0.00000000 2.00000000 100.00000000
v -1.00000000 1.73205081 0.00000000
v -1.00000000 1.73205081 100.00000000
v -1.00000000 -1.73205081 0.00000000
v -1.00000000 -1.73205081 100.00000000
v -2.00000000 0.00000000 0.00000000
v -2.00000000 0.00000000 100.00000000
v 2.00000000 0.00000000 0.00000000
v 2.00000000 0.00000000 100.00000000
v 1.00000000 1.73205081 0.00000000
v 1.00000000 1.73205081 100.00000000
v 1.00000000 -1.73205081 0.00000000
v 1.00000000 -1.73205081 100.00000000
v 1.41421356 1.41421356 0.00000000
v 1.41421356 1.41421356 100.00000000
v 1.41421356 -1.41421356 0.00000000
v 1.41421356 -1.41421356 100.00000000
v 1.73205081 -1.00000000 0.00000000
v 1.73205081 -1.00000000 100.00000000
v 1.73205081 1.00000000 0.00000000
v 1.73205081 1.00000000 100.00000000
v 0.51763809 -1.93185165 0.00000000
v 0.51763809 -1.93185165 100.00000000
v 0.51763809 1.93185165 0.00000000
v 0.51763809 1.93185165 100.00000000
v -1.93185165 0.51763809 0.00000000
v -1.93185165 0.51763809 100.00000000
v -1.93185165 -0.51763809 0.00000000
v -1.93185165 -0.51763809 100.00000000
v 1.93185165 0.51763809 0.00000000
v 1.93185165 0.51763809 100.00000000
v 1.93185165 -0.51763809 0.00000000
v 1.93185165 -0.51763809 100.00000000
v -0.51763809 -1.93185165 0.00000000
v -0.51763809 -1.93185165 100.00000000
v -0.51763809 1.93185165 0.00000000
v -0.51763809 1.93185165 100.00000000
v -1.73205081 -1.00000000 0.00000000
v -1.73205081 -1.00000000 100.00000000
v -1.73205081 1.00000000 0.00000000
v -1.73205081 1.00000000 100.00000000
v -1.41421356 1.41421356 0.00000000
v -1.41421356 1.41421356 100.00000000
v -1.41421356 -1.41421356 0.00000000
v -1.41421356 -1.41421356 100.00000000
v 0.00000000 0.00000000 97.50000000
v 0.00000000 0.00000000 102.50000000
v 0.00000000 15.00000000 97.50000000
v 0.00000000 15.00000000 102.50000000
v -0.00000000 -15.00000000 97.50000000
v -0.00000000 -15.00000000 102.50000000
v 15.00000000 0.00000000 97.50000000
v 15.00000000 0.00000000 102.50000000
v -15.00000000 0.00000000 97.50000000
v -15.00000000 0.00000000 102.50000000
v -10.60660172 -10.60660172 97.50000000
v -10.60660172 -10.60660172 102.50000000
v -10.60660172 10.60660172 97.50000000
v -10.60660172 10.60660172 102.50000000
v -14.71177921 2.92635483 97.50000000
v -14.71177921 2.92635483 102.50000000
v -14.71177921 -2.92635483 97.50000000
v -14.71177921 -2.92635483 102.50000000
v 12.47204418 8.33355350 97.50000000
v 12.47204418 8.33355350 102.50000000
v 12.47204418 -8.33355350 97.50000000
v 12.47204418 -8.33355350 102.50000000
v -5.74025149 -13.85819299 97.50000000
v -5.74025149 -13.85819299 102.50000000
v -5.74025149 13.85819299 97.50000000
v -5.74025149 13.85819299 102.50000000
v 8.33355350 12.47204418 97.50000000
v 8.33355350 12.47204418 102.50000000
v 8.33355350 -12.47204418 97.50000000
v 8.33355350 -12.47204418 102.50000000
v 2.92635483 -14.71177921 97.50000000
v 2.92635483 -14.71177921 102.50000000
v 2.92635483 14.71177921 97.50000000
v 2.92635483 14.71177921 102.50000000
v -13.85819299 -5.74025149 97.50000000
v -13.85819299 -5.74025149 102.50000000
v -13.85819299 5.74025149 97.50000000
v -13.85819299 5.74025149 102.50000000
v 13.85819299 -5.74025149 97.50000000
v 13.85819299 -5.74025149 102.50000000
v 13.85819299 5.74025149 97.50000000
v 13.85819299 5.74025149 102.50000000
v -2.92635483 -14.71177921 97.50000000
v -2.92635483 -14.71177921 102.50000000
v -2.92635483 14.71177921 97.50000000
v -2.92635483 14.71177921 102.50000000
v -8.33355350 12.47204418 97.50000000
v -8.33355350 12.47204418 102.50000000
v -8.33355350 -12.47204418 97.50000000
v -8.33355350 -12.47204418 102.50000000
v 5.74025149 -13.85819299 97.50000000
v 5.74025149 -13.85819299 102.50000000
v 5.74025149 13.85819299 97.50000000
v 5.74025149 13.85819299 102.50000000
v -12.47204418 8.33355350 97.50000000
v -12.47204418 8.33355350 102.50000000
v -12.47204418 -8.33355350 97.50000000
v -12.47204418 -8.33355350 102.50000000
v 14.71177921 2.92635483 97.50000000
v 14.71177921 2.92635483 102.50000000
v 14.71177921 -2.92635483 97.50000000
v 14.71177921 -2.92635483 102.50000000
v 10.60660172 -10.60660172 97.50000000
v 10.60660172 -10.60660172 102.50000000
v 10.60660172 10.60660172 97.50000000
v 10.60660172 10.60660172 102.50000000
v 0.00000000 0.00000000 110.00000000
v 0.00000000 0.00000000 120.00000000
v -0.00000000 -10.00000000 110.00000000
v 0.00000000 10.00000000 110.00000000
v -10.00000000 0.00000000 110.00000000
v 10.00000000 0.00000000 110.00000000
v -7.07106781 -7.07106781 110.00000000
v -7.07106781 7.07106781 110.00000000
v 3.82683432 9.23879533 110.00000000
v 3.82683432 -9.23879533 110.00000000
v 8.31469612 5.55570233 110.00000000
v 8.31469612 -5.55570233 110.00000000
v 5.55570233 8.31469612 110.00000000
v 5.55570233 -8.31469612 110.00000000
v 9.23879533 3.82683432 110.00000000
v 9.23879533 -3.82683432 110.00000000
v -1.95090322 -9.80785280 110.00000000
v -1.95090322 9.80785280 110.00000000
v -9.80785280 -1.95090322 110.00000000
v -9.80785280 1.95090322 110.00000000
v 9.80785280 -1.95090322 110.00000000
v 9.80785280 1.95090322 110.00000000
v 1.95090322 -9.80785280 110.00000000
v 1.95090322 9.80785280 110.00000000
v -9.23879533 3.82683432 110.00000000
v -9.23879533 -3.82683432 110.00000000
v -5.55570233 8.31469612 110.00000000
v -5.55570233 -8.31469612 110.00000000
v -8.31469612 5.55570233 110.00000000
v -8.31469612 -5.55570233 110.00000000
v -3.82683432 9.23879533 110.00000000
v -3.82683432 -9.23879533 110.00000000
v 7.07106781 -7.07106781 110.00000000
v 7.07106781 7.07106781 110.00000000
v 0.00000000 0.00000000 0.00000000
v 0.00000000 0.00000000 5.00000000
v 0.00000000 6.00000000 0.00000000
v 0.00000000 6.00000000 5.00000000
v -0.00000000 -6.00000000 0.00000000
v -0.00000000 -6.00000000 5.00000000
v 6.00000000 0.00000000 0.00000000
v 6.00000000 0.00000000 5.00000000
v -6.00000000 0.00000000 0.00000000
v -6.00000000 0.00000000 5.00000000
v -1.17054193 5.88471168 0.00000000
v -1.17054193 5.88471168 5.00000000
v -1.17054193 -5.88471168 0.00000000
v -1.17054193 -5.88471168 5.00000000
v -4.98881767 -3.33342140 0.00000000
v -4.98881767 -3.33342140 5.00000000
v -4.98881767 3.33342140 0.00000000
v -4.98881767 3.33342140 5.00000000
v -3.33342140 -4.98881767 0.00000000
v -3.33342140 -4.98881767 5.00000000
v -3.33342140 4.98881767 0.00000000
v -3.33342140 4.98881767 5.00000000
v 2.29610059 -5.54327720 0.00000000
v 2.29610059 -5.54327720 5.00000000
v 2.29610059 5.54327720 0.00000000
v 2.29610059 5.54327720 5.00000000
v -5.54327720 2.29610059 0.00000000
v -5.54327720 2.29610059 5.00000000
v -5.54327720 -2.29610059 0.00000000
v -5.54327720 -2.29610059 5.00000000
v -4.24264069 -4.24264069 0.00000000
v -4.24264069 -4.24264069 5.00000000
v -4.24264069 4.24264069 0.00000000
v -4.24264069 4.24264069 5.00000000
v 5.88471168 -1.17054193 0.00000000
v 5.88471168 -1.17054193 5.00000000
v 5.88471168 1.17054193 0.00000000
v 5.88471168 1.17054193 5.00000000
v -5.88471168 -1.17054193 0.00000000
v -5.88471168 -1.17054193 5.00000000
v -5.88471168 1.17054193 0.00000000
v -5.88471168 1.17054193 5.00000000
v 4.24264069 -4.24264069 0.00000000
v 4.24264069 -4.24264069 5.00000000
v 4.24264069 4.24264069 0.00000000
v 4.24264069 4.24264069 5.00000000
v 5.54327720 2.29610059 0.00000000
v 5.54327720 2.29610059 5.00000000
v 5.54327720 -2.29610059 0.00000000
v 5.54327720 -2.29610059 5.00000000
v -2.29610059 -5.54327720 0.00000000
v -2.29610059 -5.54327720 5.00000000
v -2.29610059 5.54327720 0.00000000
v -2.29610059 5.54327720 5.00000000
v 3.33342140 -4.98881767 0.00000000
v 3.33342140 -4.98881767 5.00000000
v 3.33342140 4.98881767 0.00000000
v 3.33342140 4.98881767 5.00000000
v 4.98881767 -3.33342140 0.00000000
v 4.98881767 -3.33342140 5.00000000
v 4.98881767 3.33342140 0.00000000
v 4.98881767 3.33342140 5.00000000
v 1.17054193 5.88471168 0.00000000
v 1.17054193 5.88471168 5.00000000
v 1.17054193 -5.88471168 0.00000000
v 1.17054193 -5.88471168 5.00000000
f 13 1 35
f 13 35 14
f 14 35 36
f 14 36 2
f 35 1 25
f 35 25 36
f 36 25 26
f 36 26 2
f 25 1 19
f 25 19 26
f 26 19 20
f 26 20 2
f 19 1 15
f 19 15 20
f 20 15 16
f 20 16 2
f 15 1 29
f 15 29 16
f 16 29 30
f 16 30 2
f 29 1 5
f 29 5 30
f 30 5 6
f 30 6 2
f 5 1 41
f 5 41 6
f 6 41 42
f 6 42 2
f 41 1 7
f 41 7 42
f 42 7 8
f 42 8 2
f 7 1 47
f 7 47 8
f 8 47 48
f 8 48 2
f 47 1 45
f 47 45 48
f 48 45 46
f 48 46 2
f 45 1 31
f 45 31 46
f 46 31 32
f 46 32 2
f 31 1 11
f 31 11 32
f 32 11 12
f 32 12 2
f 11 1 33
f 11 33 12
f 12 33 34
f 12 34 2
f 33 1 43
f 33 43 34
f 34 43 44
f 34 44 2
f 43 1 49
f 43 49 44
f 44 49 50
f 44 50 2
f 49 1 9
f 49 9 50
f 50 9 10
f 50 10 2
f 9 1 39
f 9 39 10
f 10 39 40
f 10 40 2
f 39 1 3
f 39 3 40
f 40 3 4
f 40 4 2
f 3 1 27
f 3 27 4
f 4 27 28
f 4 28 2
f 27 1 17
f 27 17 28
f 28 17 18
f 28 18 2
f 17 1 21
f 17 21 18
f 18 21 22
f 18 22 2
f 21 1 23
f 21 23 22
f 22 23 24
f 22 24 2
f 23 1 37
f 23 37 24
f 24 37 38
f 24 38 2
f 37 1 13
f 37 13 38
f 38 13 14
f 38 14 2
f 57 51 109
f 57 109 58
f 58 109 110
f 58 110 52
f 109 51 91
f 109 91 110
f 110 91 92
f 110 92 52
f 91 51 69
f 91 69 92
f 92 69 70
f 92 70 52
f 69 51 115
f 69 115 70
f 70 115 116
f 70 116 52
f 115 51 77
f 115 77 116
f 116 77 78
f 116 78 52
f 77 51 103
f 77 103 78
f 78 103 104
f 78 104 52
f 103 51 83
f 103 83 104
f 104 83 84
f 104 84 52
f 83 51 53
f 83 53 84
f 84 53 54
f 84 54 52
f 53 51 95
f 53 95 54
f 54 95 96
f 54 96 52
f 95 51 75
f 95 75 96
f 96 75 76
f 96 76 52
f 75 51 97
f 75 97 76
f 76 97 98
f 76 98 52
f 97 51 63
f 97 63 98
f 98 63 64
f 98 64 52
f 63 51 105
f 63 105 64
f 64 105 106
f 64 106 52
f 105 51 87
f 105 87 106
f 106 87 88
f 106 88 52
f 87 51 65
f 87 65 88
f 88 65 66
f 88 66 52
f 65 51 59
f 65 59 66
f 66 59 60
f 66 60 52
f 59 51 67
f 59 67 60
f 60 67 68
f 60 68 52
f 67 51 85
f 67 85 68
f 68 85 86
f 68 86 52
f 85 51 107
f 85 107 86
f 86 107 108
f 86 108 52
f 107 51 61
f 107 61 108
f 108 61 62
f 108 62 52
f 61 51 99
f 61 99 62
f 62 99 100
f 62 100 52
f 99 51 73
f 99 73 100
f 100 73 74
f 100 74 52
f 73 51 93
f 73 93 74
f 74 93 94
f 74 94 52
f 93 51 55
f 93 55 94
f 94 55 56
f 94 56 52
f 55 51 81
f 55 81 56
f 56 81 82
f 56 82 52
f 81 51 101
f 81 101 82
f 82 101 102
f 82 102 52
f 101 51 79
f 101 79 102
f 102 79 80
f 102 80 52
f 79 51 113
f 79 113 80
f 80 113 114
f 80 114 52
f 113 51 71
f 113 71 114
f 114 71 72
f 114 72 52
f 71 51 89
f 71 89 72
f 72 89 90
f 72 90 52
f 89 51 111
f 89 111 90
f 90 111 112
f 90 112 52
f 111 51 57
f 111 57 112
f 112 57 58
f 112 58 52
f 122 117 138
f 122 138 118
f 138 117 131
f 138 131 118
f 131 117 127
f 131 127 118
f 127 117 150
f 127 150 118
f 150 117 129
f 150 129 118
f 129 117 125
f 129 125 118
f 125 117 140
f 125 140 118
f 140 117 120
f 140 120 118
f 120 117 134
f 120 134 118
f 134 117 147
f 134 147 118
f 147 117 143
f 147 143 118
f 143 117 124
f 143 124 118
f 124 117 145
f 124 145 118
f 145 117 141
f 145 141 118
f 141 117 136
f 141 136 118
f 136 117 121
f 136 121 118
f 121 117 135
f 121 135 118
f 135 117 142
f 135 142 118
f 142 117 146
f 142 146 118
f 146 117 123
f 146 123 118
f 123 117 144
f 123 144 118
f 144 117 148
f 144 148 118
f 148 117 133
f 148 133 118
f 133 117 119
f 133 119 118
f 119 117 139
f 119 139 118
f 139 117 126
f 139 126 118
f 126 117 130
f 126 130 118
f 130 117 149
f 130 149 118
f 149 117 128
f 149 128 118
f 128 117 132
f 128 132 118
f 132 117 137
f 132 137 118
f 137 117 122
f 137 122 118
f 157 151 187
f 157 187 158
f 158 187 188
f 158 188 152
f 187 151 197
f 187 197 188
f 188 197 198
f 188 198 152
f 197 151 211
f 197 211 198
f 198 211 212
f 198 212 152
f 211 151 195
f 211 195 212
f 212 195 196
f 212 196 152
f 195 151 207
f 195 207 196
f 196 207 208
f 196 208 152
f 207 151 175
f 207 175 208
f 208 175 176
f 208 176 152
f 175 151 213
f 175 213 176
f 176 213 214
f 176 214 152
f 213 151 153
f 213 153 214
f 214 153 154
f 214 154 152
f 153 151 161
f 153 161 154
f 154 161 162
f 154 162 152
f 161 151 203
f 161 203 162
f 162 203 204
f 162 204 152
f 203 151 171
f 203 171 204
f 204 171 172
f 204 172 152
f 171 151 183
f 171 183 172
f 172 183 184
f 172 184 152
f 183 151 167
f 183 167 184
f 184 167 168
f 184 168 152
f 167 151 177
f 167 177 168
f 168 177 178
f 168 178 152
f 177 151 191
f 177 191 178
f 178 191 192
f 178 192 152
f 191 151 159
f 191 159 192
f 192 159 160
f 192 160 152
f 159 151 189
f 159 189 160
f 160 189 190
f 160 190 152
f 189 151 179
f 189 179 190
f 190 179 180
f 190 180 152
f 179 151 165
f 179 165 180
f 180 165 166
f 180 166 152
f 165 151 181
f 165 181 166
f 166 181 182
f 166 182 152
f 181 151 169
f 181 169 182
f 182 169 170
f 182 170 152
f 169 151 201
f 169 201 170
f 170 201 202
f 170 202 152
f 201 151 163
f 201 163 202
f 202 163 164
f 202 164 152
f 163 151 155
f 163 155 164
f 164 155 156
f 164 156 152
f 155 151 215
f 155 215 156
f 156 215 216
f 156 216 152
f 215 151 173
f 215 173 216
f 216 173 174
f 216 174 152
f 173 151 205
f 173 205 174
f 174 205 206
f 174 206 152
f 205 151 193
f 205 193 206
f 206 193 194
f 206 194 152
f 193 151 209
f 193 209 194
f 194 209 210
f 194 210 152
f 209 151 199
f 209 199 210
f 210 199 200
f 210 200 152
f 199 151 185
f 199 185 200
f 200 185 186
f 200 186 152
f 185 151 157
f 185 157 186
f 186 157 158
f 186 158 152